<svg width="3429" height="1792" viewBox="0 0 3429 1792" fill="none" xmlns="http://www.w3.org/2000/svg">
<path d="M3351.79 1388.34C3351.2 1389.38 3350.6 1390.42 3350.01 1391.46L3350.54 1391.05C3345.47 1399.98 3340.29 1408.72 3334.99 1417.27C3325.88 1432.57 3316.4 1447.67 3306.15 1462.18C3269.75 1513.75 3218.6 1569.09 3169.97 1609.36C3157.84 1619.39 3147.85 1627.36 3136.46 1633.9C3010.27 1728.62 2879.5 1769.75 2807.82 1779.01C2556.02 1825.02 2297.87 1736.13 2200.27 1685.94L2200.88 1684.91C2165.16 1668.96 2130.19 1651.38 2096.44 1631.88C1990.32 1570.59 1896.6 1490.66 1812.39 1402.1L1808.19 1394.68C1827.95 1410.39 1847.26 1427.02 1867.56 1442.08C2004.31 1543.59 2154.98 1626.11 2316.45 1681.06L2249.94 1646.2L2251.51 1644.37L2451.5 1722.01L2315.56 1655.35L2318.43 1653.26L2528.62 1736.65H2540.38L2372.55 1658.49L2374.38 1655.35L2605.22 1736.65L2622.21 1739.01L2431.63 1656.66L2434.24 1653.26L2690.44 1738.75H2702.99L2477.12 1647.51L2481.3 1644.63L2754.49 1726.98H2770.7L2531.49 1638.1L2533.85 1635.22L2821.41 1713.39H2836.05L2577.51 1625.81L2579.86 1622.41L2886.77 1697.96L2899.32 1695.61L2615.41 1609.08L2617.76 1605.68L2954.22 1675.74L2956.83 1672.08L2658.81 1591.56L2660.9 1586.07L3008.59 1654.57L3013.82 1649.08L2692.27 1569.34L2693.84 1564.9L2948.26 1606.76L3052.54 1622.44L3053.56 1620.06L2729.26 1546.99L2730.44 1541.63L2894.81 1566.94L3095.37 1595L3098.52 1589.73L2763.9 1523.86L2764.82 1520.06L2893.44 1534.74L3139.12 1561.09L3140.87 1557.32L2790.96 1497.97L2791.74 1494.84L3171.2 1529.61L3172.85 1528.33L3178.4 1523.65L2849.85 1474.73L2833.72 1470.78L3003.93 1483.44L3101.17 1487.7C3132.7 1489.67 3164.81 1495.39 3196.33 1496.3C3202.87 1496.49 3209.83 1495.79 3210.09 1487.7L2864.6 1445.15L2852.73 1441.18L3241.78 1460.18L3240.85 1453.72L2893.95 1417.89L2878.1 1413.69C2893.92 1416.31 2909.76 1414.93 2925.66 1415.8C3019.81 1420.91 3114.45 1422.09 3208.93 1424.34C3218.26 1424.57 3257.2 1425.78 3261.99 1422.26C3264.11 1420.71 3265.6 1418.62 3265.04 1415.8L2924.59 1388.31H3351.74L3351.79 1388.34ZM2431.93 1601.94H2431.95C2432.52 1604.7 2428.06 1605.32 2426.18 1605.63C2418.53 1606.87 2394.94 1611.13 2389.13 1609.95C2371.42 1606.37 2350.87 1592.33 2332.6 1588.15L2241.64 1549.08L2431.93 1601.94ZM2334.69 1606.14C2324.51 1606.4 2318.35 1608.3 2308.14 1608.64L2304.82 1608.88C2302.11 1608.97 2295.24 1610.96 2290.22 1607.27L2176.53 1552.54L2164.5 1544.79L2334.69 1606.14ZM2091.51 1536.36C2121.82 1542.51 2148.72 1558.38 2176.77 1570.56C2195.15 1578.54 2214.32 1585.05 2232.71 1592.86C2235.33 1593.96 2238.94 1593.99 2239.53 1597.65V1597.68C2234.77 1597.65 2230.62 1597.88 2225.69 1597.68C2217.88 1597.37 2202.26 1598.05 2197.24 1596.81C2177.7 1592.04 2148.35 1567.49 2128.13 1559.99L2091.51 1536.36ZM2516.54 1585.02C2517.05 1588.07 2512.87 1587.9 2510.65 1588.61C2500.58 1591.82 2489.87 1593.68 2479.86 1597.15L2364.37 1558.49L2305.11 1536.39L2516.54 1585.02ZM2590.55 1557.54L2569.94 1567.57L2553.99 1574.36L2374.41 1520.97L2355.83 1513.13L2590.55 1557.54ZM2656.07 1523.7L2630.16 1538.98L2622.24 1543.25L2415.04 1489.87L2656.07 1523.7ZM2152.25 1523.65L2117.82 1527.27L2043.52 1486.2H2054.4L2152.25 1523.65ZM2212.05 1519.42L2176.41 1527.27L2093.06 1486.2L2212.05 1519.42ZM2089.43 1519.42H2065.87L2001.84 1486.2L2006.07 1478.95L2089.43 1519.42ZM2260.38 1510.96L2235.01 1519.42L2133.53 1478.95L2260.38 1510.96ZM2457.33 1460.24C2456.82 1456.49 2462.15 1458.09 2464.46 1458.38C2522.23 1465.45 2580.12 1472.13 2638.11 1477.15C2654.94 1478.62 2669.38 1478.06 2686.27 1479.52C2690.53 1479.89 2713.25 1479.66 2713.14 1484.57C2705 1497.04 2696.9 1503.46 2680.43 1502.56C2635.07 1500.05 2570.08 1480.51 2523.3 1471.43C2501.43 1467.17 2479.35 1463.39 2457.3 1460.24H2457.33ZM2308.1 1494.05L2285.75 1502.51L2163.12 1465.66L2308.1 1494.05ZM2263.58 77.0549C2429.19 6.62576 2586.63 -20.9479 2763.66 19.6799C2817.06 31.9162 2870.18 51.8772 2920.31 73.5022L2918.39 77.4211C2928.26 72.4876 2929.05 79.8183 2932.71 81.51C3023.02 122.984 3110.93 181.937 3180.96 252.62L3182.95 254.579C3251.29 323.768 3314.07 391.759 3362.84 477.78C3388.53 523.088 3410.66 571.779 3428.03 620.894H2816.92L2816.81 620.753L3330.59 577.249C3330.96 575.697 3322.44 552.523 3321.14 550.972C3316.58 545.447 3302.39 550.888 3295.85 551.085C3146.14 555.765 2996.88 558.048 2847.45 565.774L2766.06 570.003L3292.58 503.38C3284.21 492.018 3285.22 476.314 3268.22 476.822C3247.05 477.47 3223.9 481.783 3202.67 483.306C3108.25 490.185 3013.91 496.473 2919.35 502.365L2749.14 519.253L3248.18 434.671C3250.4 433.148 3237.13 413.468 3235.49 412.482C3232.08 410.424 3223.9 411.185 3219.62 411.439C3123.95 417.021 3022.77 441.353 2925.95 445.497L2719.54 472.733L3189.65 370.867C3197.91 366.638 3191.45 361.745 3188.23 357.206C3185.25 352.949 3183.73 349.044 3176.93 348.452L2664.56 432.556L3129.73 309.911C3131.06 308.134 3119.89 292.657 3115.92 292.939L2622.27 394.494L3064.21 257.047C3065.11 251.324 3061.11 247.32 3056.37 244.811L2567.29 362.776L2996.54 210.527C2998.01 203.591 2991.78 199.926 2985.44 200.349L2526.04 331.085L2924.65 169.279L2923.52 164.034L2461.59 309.911L2850.67 136.517L2845.82 132.626L2408.75 290.88L2774.57 109.056C2766.14 109.225 2758.87 113.792 2751.25 116.527C2617.67 164.513 2480.28 225.695 2346.27 280.28L2649.81 113.313C2646.17 113.003 2642.71 113.229 2639.15 114.272C2629.34 117.148 2612.31 125.437 2601.82 129.807C2495.5 174.382 2391.72 226.061 2286.7 273.569L2281.85 271.877L2541.91 121.743C2523.87 127.861 2505.65 135.332 2488.29 143.17C2414.25 176.637 2338.58 214.277 2265.61 250.365C2252.16 257.019 2239.19 265.11 2225.74 271.849C2219.45 272.244 2224.13 269.453 2226.11 267.958C2229.72 265.223 2234.06 263.278 2237.58 260.403L2423.5 145.003C2416.03 145.99 2407.85 149.965 2400.91 153.067C2318.92 189.635 2241.05 235.337 2162.3 278.164C2155.85 278.474 2160.81 275.909 2162.7 274.33C2182.89 257.357 2216.13 241.061 2239.36 226.231C2260.76 212.557 2281.79 198.149 2302.97 184.109C2301.58 181.318 2297.21 183.968 2295.16 184.757C2232.4 208.976 2171.1 251.042 2111.58 282.422L2108.45 281.406C2133.1 262.404 2163.49 247.01 2187.4 227.133C2189.29 225.554 2194.22 222.961 2187.79 223.299C2065.97 279.152 1958.6 360.294 1856.79 446.315C1573.83 685.402 1332.18 972.758 1045.84 1208.6C828.182 1387.92 507.472 1599.12 228.772 1418.88C173.399 1383.07 122.761 1329.84 86.0524 1278.24C71.2223 1257.41 57.8297 1234.63 48.8922 1210.77L149.405 1210.86H163.931L361.793 1208.66C362.272 1212.35 357 1210.66 354.406 1210.75C337.518 1211.42 320.488 1211.54 303.656 1212.86C252.963 1216.84 199.788 1221.85 149.293 1227.66C143.354 1228.35 124.849 1228.79 124.877 1235.08C124.961 1247.88 148.698 1243.11 155.324 1242.89C231.956 1240.12 308.308 1232.65 385.052 1229.8L152.303 1259.8L161.817 1269.16C212.538 1268.77 255.19 1261.58 305.77 1257.27C319.021 1256.14 332.696 1256.22 345.947 1255.15C363.145 1253.74 380.4 1249.88 397.74 1250.95L183.097 1284.76C171.397 1284.53 179.808 1295.81 188.999 1295.44L416.771 1270.01L248.029 1303.17L203.228 1310.19L209.084 1318.09L215.728 1324.59L440.088 1286.93L330.186 1313.37L226.45 1335.68L233.791 1342.02L238.757 1345.95L457.005 1303.84L450.632 1306.94L254.689 1357.51L262.662 1362.85C332.386 1354.2 400.25 1332.09 469.692 1320.76L333.936 1363.64L289.875 1375.17L297.274 1379.4L301.503 1382.27L490.838 1333.45C491.345 1336.49 487.284 1336.21 485.029 1337.11C437.127 1355.97 370.752 1374.49 322.342 1392.39L330.159 1393.73C339.558 1395.95 353.335 1390.2 364.02 1387.41C416.461 1373.65 467.859 1355.24 520.441 1341.93L495.067 1353.52C458.64 1368.8 419.365 1380.76 383.135 1395.95C378.906 1397.73 372.281 1398.75 370.336 1403.2C387.308 1402.13 404.253 1395.92 420.605 1391.1C462.333 1378.78 503.412 1363.81 544.773 1350.34C548.128 1352.45 543.223 1352.96 541.728 1353.61C532.96 1357.52 523.881 1360.63 515.564 1365.53L412.655 1409.54C472.032 1399.36 525.827 1370.52 582.836 1352.45C586.19 1354.56 581.285 1355.07 579.791 1355.72C565.694 1362.06 552.103 1368.89 538.147 1375.43C512.039 1387.66 485.086 1397.98 459.147 1410.61C460.472 1413.32 464.983 1410.76 467.126 1410.14C511.842 1397.08 554.387 1377.71 597.75 1360.96C603.219 1360.85 602.768 1361.19 598.201 1363.53C576.83 1374.41 549.38 1389.32 527.642 1399.41L533.185 1401.09C567.836 1392.54 598.737 1371.82 632.542 1360.94L571.417 1396.01C570.599 1396.55 557.884 1403.37 565.89 1403.2L640.38 1369.85L643.03 1372.5L619.882 1384.22L626.818 1385.89C645.708 1377.15 665.388 1369.76 684.109 1360.71C690.509 1357.61 698.093 1349.69 704.437 1351.43C697.642 1358.51 687.83 1361.33 679.485 1366.69C675.51 1369.25 674.946 1370.16 680.021 1369.37C714.672 1363.92 820.766 1294.82 853.133 1271.76C976.737 1183.68 1094.25 1067.55 1202.49 961.367C1513.58 656.137 1857.13 249.914 2263.58 77.0549ZM2350.98 1474.12L2325.61 1486.2L2192.72 1448.14L2350.98 1474.12ZM2038.09 1470.49H2018.15L1977.68 1448.14L2038.09 1470.49ZM2070.1 1470.49H2054.4L2001.84 1448.14L2070.1 1470.49ZM1995.8 1465.66H1980.7L1948.08 1443.91L1995.8 1465.66ZM2102.12 1465.66H2083.39L2027.21 1443.91L2102.12 1465.66ZM2395.08 1448.14L2368.5 1465.66L2209.03 1428.21L2395.08 1448.14ZM2763.91 1437.01H2763.94C2764.84 1440.61 2762.56 1441.23 2760.78 1443.35C2756.72 1448.2 2745.56 1460.38 2739.72 1460.38L2499.62 1426.43L2763.91 1437.01ZM2128.69 1456.6H2112.38L2038.09 1432.44L2128.69 1456.6ZM2156.48 1440.29L2141.38 1448.14L2060.44 1425.19L2156.48 1440.29ZM2184.87 1425.19L2167.35 1432.44L2076.14 1413.71L2184.87 1425.19ZM2421.66 1420.36L2405.35 1432.44L2235.81 1407.73L2421.66 1420.36ZM2199.97 1407.67L2192.72 1413.71L2089.43 1401.03L2199.97 1407.67ZM2804.12 1386.26C2797.38 1393.67 2792.64 1410.5 2782.01 1411.71C2697.57 1406.67 2613.58 1396.72 2529.2 1391.53L2804.12 1386.26ZM2435.55 1401.03L2247.69 1388.34H2446.42L2435.55 1401.03ZM2212.05 1395.59L2093.06 1388.34H2212.05V1395.59ZM680.541 1336.97L659.399 1335.16L744.57 1301.93L680.541 1336.97ZM627.384 1335.16L611.982 1331.83L714.67 1298.91L627.384 1335.16ZM585.404 1328.21L566.98 1321.26L661.815 1297.1L585.404 1328.21ZM730.375 1328.21H717.992L778.396 1297.1L730.375 1328.21ZM546.745 1313.71L525 1306.46L634.029 1282.91L546.745 1313.71ZM759.973 1294.99L751.214 1292.57L798.028 1273.85L759.973 1294.99ZM504.763 1294.69L488.756 1285.02L611.982 1265.09L504.763 1294.69ZM738.832 1289.85L729.468 1286.83L779.001 1269.01L738.832 1289.85ZM713.16 1282.91L704.323 1279.14L751.214 1265.99L713.16 1282.91ZM690.81 1273.85L682.655 1269.01L729.468 1258.74L690.81 1273.85ZM473.051 1272.34L455.534 1261.76L592.652 1246.36L473.051 1272.34ZM668.46 1260.56L657.889 1254.52L723.428 1244.25L668.46 1260.56ZM440.735 1248.17L428.654 1237.91L568.793 1228.54L440.735 1248.17ZM647.318 1247.27L634.935 1240.93L708.63 1233.37L647.318 1247.27ZM629.197 1233.37L617.72 1226.13L697.756 1220.99L629.197 1233.37ZM416.573 1224.31L405.701 1208.31H564.866L416.573 1224.31ZM609.868 1217.97L597.787 1208.91H679.635L609.868 1217.97ZM817.213 626.62H759.829L764.963 615.445H821.441L817.213 626.62ZM2332.78 624.222H2115.32L2322.51 604.893L2332.78 624.222ZM731.89 624.039L615.007 621.925C615.008 618.301 619.639 613.166 621.955 611.052L731.89 624.039ZM388.887 376.111C531.776 349.382 680.416 398.638 802.271 471.013C840.813 493.907 880.031 521.452 911.581 553.058L839.008 510.428C777.186 477.238 713.679 449.354 643.535 439.003L678.005 455.85L676.496 458.267L665.916 453.652C665.72 453.65 665.516 453.648 665.303 453.645C651.788 448.951 636.506 440.791 620.845 435.114C605.789 430.771 592.801 429.574 587.399 429.574L650.219 455.85V460.985L641.974 457.761L641.987 457.903C641.635 457.718 641.281 457.537 640.927 457.353L557.499 424.741C535.995 417.976 536.86 420.514 539.981 422.628L622.433 458.267V460.985L612.599 457.821C612.565 457.819 612.53 457.819 612.496 457.818C612.349 457.76 612.202 457.702 612.054 457.645L509.779 424.741C492.141 417.251 489.343 420.212 490.148 422.628L530.187 438.13C547.232 444.213 564.22 450.376 580.974 457.62C581.581 457.885 585.186 459.036 586.953 460.108L607.936 468.233L605.52 470.65L494.732 434.078C493.566 433.764 492.4 433.453 491.232 433.148C488.466 432.428 485.549 431.292 482.434 430.019L481.088 429.574C472.604 426.137 466.101 424.052 461.166 422.902C457.535 422.231 453.68 421.884 449.569 422.05C447.53 422.584 446.856 423.679 446.959 424.741L557.739 465.436L559.773 466.163L559.77 466.182L565.351 468.233V470.65L426.119 429.574C406.789 424.259 403.568 427.36 404.374 429.574L410.49 431.596C411.117 431.739 411.644 431.875 412.006 432.02C412.403 432.177 412.798 432.332 413.192 432.488L546.928 476.69V480.314L380.513 436.219C366.084 430.583 361.579 433.273 360.959 435.703C361.055 435.924 361.162 436.138 361.279 436.343L426.247 456.769C434.224 459.002 442.179 461.289 450.069 463.738L460.715 467.606L520.35 486.355V489.677L327.66 443.769C314.129 439.661 312.357 443.266 313.163 445.581L497.094 498.133L302.29 461.286C282.961 457.179 281.551 460.984 283.262 463.401L473.235 510.517V513.235L268.464 476.69C245.51 471.374 245.408 477.093 248.227 480.616L446.959 525.316V528.638L247.443 497.324L223.179 493.795C222.727 493.79 222.3 493.798 221.895 493.819C217.634 494.05 215.801 495.864 215.671 499.572C215.737 499.807 215.818 500.033 215.911 500.247L423.703 541.625V544.645L210.172 517.463C209.494 517.317 208.835 517.181 208.195 517.057L198.702 515.897C188.082 515.613 186.949 520.22 188.126 523.201L309.783 544.286L341.013 549.59L343.646 550.154L407.696 561.256V563.975L178.762 541.625C157.5 538.484 158.023 544.947 160.943 548.571L386.252 582.096L138.292 566.089C130.56 566.572 131.848 572.331 133.459 575.15L360.882 602.029L352.783 601.773L353.306 601.834C342.155 601.649 331.003 601.22 319.845 600.732L121.982 594.479C106.035 592.787 106.478 600.419 108.693 604.445L343.063 621.359V623.171L48.8932 621.057L49.0592 620.865H48.8365V620.752L68.6432 588.782C144.149 478.62 256.769 400.837 388.887 376.111ZM581.786 620.151V623.171L397.551 620.151L407.216 607.466L581.786 620.151ZM2699.49 586.75C2714.74 586.525 2716.15 612.097 2723.74 622.839L2723.76 622.867L2408.67 619.709L2699.49 586.75ZM2078.82 621.563H1955.3L2073.99 611.294L2078.82 621.563ZM829.294 604.875L824.16 612.123H766.775L773.42 602.761L829.294 604.875ZM639.17 593.534L738.838 605.918L737.025 607.73L627.693 604.407C630.366 600.64 636.403 593.191 639.17 593.534ZM599.302 599.613V602.029L417.485 592.969L434.701 576.961L599.302 599.613ZM831.71 600.948L778.554 598.532L786.407 592.19H841.676L831.71 600.948ZM2064.93 594.381L1949.56 599.818L2057.08 584.112L2064.93 594.381ZM2307.41 580.731L2099.62 595.228L2293.51 563.818L2307.41 580.731ZM745.784 590.817V593.534L649.438 586.891C650.576 580.696 659.779 577.262 664.238 576.32L745.784 590.817ZM848.019 586.451H794.863L806.642 580.411L848.019 586.451ZM857.986 580.411L855.57 583.129L813.589 578.297L817.213 576.485L857.986 580.411ZM669.372 568.769C672.884 565.594 680.519 559.398 682.963 560.01L763.603 580.246L756.959 582.662L669.372 568.769ZM2046.51 570.522L1939.29 581.092L2035.33 560.252L2046.51 570.522ZM615.914 576.961L612.591 580.888L447.687 564.578L467.621 547.967L615.914 576.961ZM862.359 573.304L873.088 576.485L870.966 578.297L870.067 580.411L825.971 565.612L862.359 573.304ZM841.676 544.773L883.954 566.659L896.034 570.585L890.597 573.304L885.319 571.954L860.704 560.779L824.16 549.001L801.81 544.773L799.696 534.806L841.676 544.773ZM2659.4 517.986C2662.33 518.353 2670.28 530.165 2672.65 533.407C2674.43 535.832 2687.14 553.932 2685.7 555.201L2549.24 559.346L2364.32 572.118L2659.4 517.986ZM780.818 568.769L699.272 556.99C701.789 554.876 707.97 550.225 712.561 548.533L780.818 568.769ZM2024.46 548.776L1926.3 565.085L2012.38 539.413L2024.46 548.776ZM2277.21 541.468L2080.29 563.818L2260.29 525.158L2277.21 541.468ZM798.336 560.01L723.131 545.513C727.46 544.305 737.085 541.889 740.951 541.889L798.336 560.01ZM640.982 558.84L483.024 539.208L503.259 524.409L640.982 558.84ZM827.028 554.272H801.053L753.335 537.963L763.603 532.828L827.028 554.272ZM1997.58 527.936L1907.27 550.588L1986.1 521.594L1997.58 527.936ZM1787.67 543.641L1833.88 507.399L1852.91 504.681L1787.67 543.641ZM666.049 541.625H655.177L523.495 516.859C527.421 513.033 536.784 505.08 542.825 503.872L666.049 541.625ZM1964.05 513.137L1887.04 539.413L1949.56 509.815L1964.05 513.137ZM2240.36 505.225L2053.71 537.844L2218.61 490.124L2240.36 505.225ZM1821.8 535.487L1875.86 501.359H1887.04L1821.8 535.487ZM1856.23 533.977L1852.91 532.466L1909.69 504.681H1927.81L1856.23 533.977ZM704.104 531.356L570.308 499.946C574.335 497.026 583.417 491.187 587.524 491.187L704.104 531.356ZM748.2 488.166C771.959 496.925 820.987 517.16 827.028 528.033L737.931 495.113C739.844 492.798 744.576 488.166 748.2 488.166ZM740.347 524.409L620.142 491.187C623.767 487.361 632.646 479.71 639.17 479.71L740.347 524.409ZM2604.39 457.819L2634.93 486.492L2334.69 523.483L2463.65 488.578L2598.24 455.902L2604.39 457.819ZM774.476 519.576H766.321L681.151 488.166C683.366 486.052 690.574 481.824 701.688 481.824L774.476 519.576ZM2197.47 474.419L2025.92 517.306L2170.89 460.526L2197.47 474.419ZM2143.71 449.654L1990.89 499.185L2115.32 439.988L2143.71 449.654ZM1871.29 485.896L1844.11 495.561L1929.88 435.156H1955.85L1871.29 485.896ZM2025.92 429.72L1897.26 490.124L1996.32 424.887L2025.92 429.72ZM2091.16 435.156L1945.58 490.124L2060.35 424.887L2091.16 435.156ZM2528.77 403.404C2540.24 402.137 2562.28 422.983 2571.49 430.447L2288.16 483.306C2288.16 480.12 2294.51 479.387 2297.1 478.541C2374.21 453.11 2451.35 427.904 2528.77 403.404ZM2455.02 357.419C2458.23 357.025 2493.64 376.393 2497.51 381.807L2235.3 445.244L2338.94 401.938L2455.02 357.419ZM2571.52 430.47C2571.51 430.462 2571.5 430.454 2571.49 430.447L2571.52 430.442V430.47ZM2415.04 341.629V341.657L2167.66 421.955C2170.88 416.852 2178.49 414.286 2183.82 411.693C2244.29 382.371 2305.36 354.317 2365.84 325.079L2415.04 341.629ZM2116.89 322.626L1941.4 419.868L1949.94 409.456C1975.61 392.543 2051.05 328.463 2077.95 324.882C2089.79 323.303 2104.59 324.402 2116.89 322.598V322.626ZM2268.99 308.755C2282.38 304.47 2309.56 316.537 2324.06 318.398H2324.08L2104.2 402.924L2118.32 392.774L2268.99 308.755ZM2226.81 309.94H2226.84L2025.96 400.838C2033.88 393.141 2044.34 386.966 2053.62 380.933C2094.5 354.374 2136.65 327.899 2178.83 304.188L2226.81 309.94Z" fill="url(#paint0_linear_12_60)"/>
<path d="M70.3323 958.79H105.068C111.252 958.79 116.12 957.08 119.672 953.659C123.356 950.107 125.198 945.567 125.198 940.041C125.198 928.989 118.62 923.463 105.462 923.463H70.3323V958.79ZM103.291 872.742H70.3323V901.161H104.87C115.922 901.161 121.448 896.425 121.448 886.951C121.448 881.952 120.001 878.333 117.107 876.097C114.344 873.86 109.738 872.742 103.291 872.742ZM102.897 981.092H43.8861V850.045H108.423C121.054 850.045 130.79 853.269 137.632 859.716C144.474 866.031 147.895 874.715 147.895 885.767C147.895 891.293 146.382 896.293 143.355 900.767C140.329 905.109 136.514 908.266 131.909 910.24C145.197 915.24 151.842 925.831 151.842 942.015C151.842 954.251 147.697 963.856 139.408 970.829C131.119 977.671 118.949 981.092 102.897 981.092ZM244.644 937.476V850.045H272.669V937.476C272.669 953.264 267.998 965.237 258.657 973.395C249.447 981.553 236.158 985.631 218.79 985.631C202.475 985.631 189.778 981.75 180.7 973.987C171.621 966.093 167.082 954.448 167.082 939.054V850.045H194.909V936.489C194.909 944.646 196.949 951.093 201.028 955.83C205.238 960.567 211.027 962.935 218.395 962.935C235.894 962.935 244.644 954.448 244.644 937.476ZM320.023 981.092H292.59V850.045H320.023V981.092ZM431.635 981.092H339.27V850.045H366.703V957.212H431.635V981.092ZM474.655 958.79H497.351C509.193 958.79 517.811 955.106 523.205 947.738C528.731 940.37 531.494 929.186 531.494 914.187C531.494 899.319 528.665 888.728 523.008 882.412C517.482 875.965 508.14 872.742 494.983 872.742H474.655V958.79ZM502.877 981.092H448.011V850.045H498.732C516.758 850.045 531.363 855.834 542.546 867.413C553.862 878.991 559.519 894.583 559.519 914.187C559.519 934.186 554.322 950.37 543.928 962.738C533.534 974.974 519.85 981.092 502.877 981.092ZM605.193 981.092H577.76V850.045H605.193V981.092ZM731.211 981.092H705.949L649.899 893.07V981.092H624.44V850.045H653.452L705.555 934.318V850.045H731.211V981.092ZM871.301 981.092H848.605L848.013 968.066C844.855 973.592 839.79 977.934 832.816 981.092C825.843 984.118 817.817 985.631 808.738 985.631C791.239 985.631 776.963 978.724 765.911 964.909C754.859 950.962 749.333 934.449 749.333 915.371C749.333 895.109 754.991 878.465 766.306 865.439C777.621 852.282 793.476 845.703 813.87 845.703C829.527 845.703 842.75 849.914 853.539 858.334C864.328 866.755 870.183 877.478 871.104 890.504H843.474C842.816 884.452 839.592 879.254 833.803 874.912C828.014 870.571 821.369 868.4 813.87 868.4C802.686 868.4 793.805 872.61 787.226 881.031C780.647 889.451 777.358 901.293 777.358 916.555C777.358 924.187 778.542 931.357 780.911 938.068C783.411 944.778 787.489 950.567 793.147 955.435C798.805 960.172 805.646 962.54 813.672 962.54C822.619 962.54 830.185 959.646 836.369 953.856C842.553 947.936 845.645 940.831 845.645 932.542H816.633V910.635H871.301V981.092Z" fill="white"/>
<path d="M882.896 786.839H3.10425V1049.6H882.896V1155L1133.57 917.011L882.896 682.642V786.839Z" stroke="url(#paint1_linear_12_60)" stroke-width="4.89277"/>
<path d="M2691.02 957.371H2565.31V779.016H2602.64V924.869H2691.02V957.371ZM2737.21 957.371H2699.87V921.109H2737.21V957.371Z" fill="#F8B93A"/>
<path d="M2852.1 957.371H2814.77V779.016H2852.1V957.371ZM2902.2 957.371H2864.87V921.109H2902.2V957.371Z" fill="#74C58C"/>
<path d="M3070.01 957.371H3034.82L2974.39 779.016H3014.14L3053.09 904.186L3091.77 779.016H3130.45L3070.01 957.371ZM3144.58 957.371H3107.24V921.109H3144.58V957.371Z" fill="#F05643"/>
<path d="M3357.51 957.371H3222.14V779.016H3353.22V810.174H3258.4V848.316H3345.69V879.743H3258.4V925.675H3357.51V957.371ZM3402.43 957.371H3365.1V921.109H3402.43V957.371Z" fill="#3081B9"/>
<path d="M2155.03 1180.99H2019.65V1002.64H2150.73V1033.8H2055.91V1071.94H2143.21V1103.37H2055.91V1149.3H2155.03V1180.99ZM2293.96 1180.99H2258.77V1100.95C2258.77 1090.92 2257.07 1084.12 2253.67 1080.54C2250.44 1076.77 2244.62 1074.89 2236.21 1074.89C2218.12 1074.89 2209.08 1085.01 2209.08 1105.25V1180.99H2174.16V1048.84H2207.47V1068.18C2215.7 1052.96 2229.94 1045.35 2250.17 1045.35C2263.25 1045.35 2273.81 1049.2 2281.87 1056.9C2289.93 1064.6 2293.96 1075.43 2293.96 1089.4V1180.99ZM2394.93 1128.35V1093.97H2427.44V1131.57C2427.44 1146.61 2422.87 1159.24 2413.74 1169.44C2404.78 1179.47 2391.53 1184.49 2373.98 1184.49C2355.72 1184.49 2342.11 1179.47 2333.15 1169.44C2324.38 1159.42 2319.99 1146.7 2319.99 1131.3V1013.11H2354.37V1048.84H2427.44V1073.55H2354.37V1127.81C2354.37 1145.36 2361.09 1154.13 2374.52 1154.13C2388.13 1154.13 2394.93 1145.54 2394.93 1128.35ZM2485.49 1102.02H2539.48C2539.3 1092.71 2536.52 1085.55 2531.15 1080.54C2525.96 1075.52 2519.69 1073.01 2512.35 1073.01C2505.19 1073.01 2499.1 1075.61 2494.08 1080.8C2489.07 1086 2486.2 1093.07 2485.49 1102.02ZM2575.47 1124.05H2484.41C2484.95 1134.08 2487.82 1142.05 2493.01 1147.96C2498.38 1153.86 2505.37 1156.82 2513.96 1156.82C2519.69 1156.82 2524.71 1155.48 2529 1152.79C2533.48 1150.1 2536.34 1146.52 2537.6 1142.05H2573.59C2569.65 1155.48 2562.49 1165.95 2552.1 1173.47C2541.9 1180.82 2529.72 1184.49 2515.57 1184.49C2471.52 1184.49 2449.5 1160.49 2449.5 1112.5C2449.5 1091.91 2455.14 1075.61 2466.42 1063.61C2477.7 1051.44 2493.37 1045.35 2513.42 1045.35C2554.79 1045.35 2575.47 1071.58 2575.47 1124.05ZM2633.2 1180.99H2598.28V1048.84H2631.05V1064.69C2636.25 1056.63 2641.89 1051.44 2647.98 1049.11C2654.24 1046.6 2661.68 1045.35 2670.27 1045.35H2674.84V1081.07C2671.61 1080.54 2668.39 1080.27 2665.17 1080.27C2643.86 1080.27 2633.2 1090.92 2633.2 1112.23V1180.99ZM2757.65 1154.67C2777.7 1154.67 2787.73 1141.06 2787.73 1113.84C2787.73 1102.02 2784.95 1092.44 2779.4 1085.1C2773.85 1077.58 2766.69 1073.82 2757.91 1073.82C2749.5 1073.82 2742.42 1077.4 2736.69 1084.56C2731.14 1091.55 2728.37 1100.59 2728.37 1111.69C2728.37 1140.34 2738.13 1154.67 2757.65 1154.67ZM2729.71 1243.58H2695.33V1048.84H2728.91L2729.17 1064.96C2737.23 1051.88 2749.5 1045.35 2765.97 1045.35C2782.98 1045.35 2796.77 1051.7 2807.34 1064.42C2817.9 1077.13 2823.19 1094.41 2823.19 1116.26C2823.19 1136.67 2818.35 1153.15 2808.68 1165.68C2799.01 1178.22 2785.76 1184.49 2768.93 1184.49C2752.63 1184.49 2739.56 1177.59 2729.71 1163.8V1243.58ZM2881.59 1180.99H2846.67V1048.84H2879.44V1064.69C2884.64 1056.63 2890.28 1051.44 2896.36 1049.11C2902.63 1046.6 2910.06 1045.35 2918.66 1045.35H2923.23V1081.07C2920 1080.54 2916.78 1080.27 2913.56 1080.27C2892.25 1080.27 2881.59 1090.92 2881.59 1112.23V1180.99ZM2979.44 1180.99H2944.52V1048.84H2979.44V1180.99ZM2979.44 1032.99H2944.52V1000.49H2979.44V1032.99ZM3119.22 1088.86H3085.64C3084.75 1082.42 3082.42 1077.94 3078.66 1075.43C3074.9 1072.75 3068.99 1071.4 3060.93 1071.4C3047.14 1071.4 3040.25 1075.07 3040.25 1082.42C3040.25 1086 3041.86 1088.86 3045.08 1091.01C3048.49 1093.16 3054.04 1095.31 3061.74 1097.46C3065.14 1098.53 3069.71 1099.79 3075.44 1101.22C3081.35 1102.65 3086.36 1103.99 3090.48 1105.25C3094.6 1106.32 3098.18 1107.49 3101.22 1108.74C3115.73 1114.65 3122.98 1125.3 3122.98 1140.7C3122.98 1154.49 3117.97 1165.24 3107.94 1172.94C3098.09 1180.64 3083.85 1184.49 3065.23 1184.49C3045.35 1184.49 3029.86 1180.28 3018.76 1171.86C3007.66 1163.45 3001.93 1152.34 3001.57 1138.55H3037.56C3037.56 1144.64 3039.98 1149.48 3044.82 1153.06C3049.83 1156.46 3056.55 1158.16 3064.96 1158.16C3071.77 1158.16 3077.32 1157.09 3081.62 1154.94C3086.09 1152.61 3088.33 1149.12 3088.33 1144.46C3088.33 1140.17 3086.54 1137.03 3082.96 1135.06C3079.38 1132.91 3074.09 1131.03 3067.11 1129.42C3045.44 1124.23 3030.76 1119.21 3023.06 1114.38C3011.96 1107.4 3006.41 1097.46 3006.41 1084.56C3006.41 1072.57 3010.88 1063.08 3019.84 1056.09C3028.79 1048.93 3042.85 1045.35 3062.01 1045.35C3080.81 1045.35 3094.78 1049.02 3103.91 1056.36C3113.22 1063.52 3118.33 1074.36 3119.22 1088.86ZM3176.62 1102.02H3230.61C3230.43 1092.71 3227.65 1085.55 3222.28 1080.54C3217.09 1075.52 3210.82 1073.01 3203.48 1073.01C3196.31 1073.01 3190.23 1075.61 3185.21 1080.8C3180.2 1086 3177.33 1093.07 3176.62 1102.02ZM3266.6 1124.05H3175.54C3176.08 1134.08 3178.94 1142.05 3184.14 1147.96C3189.51 1153.86 3196.49 1156.82 3205.09 1156.82C3210.82 1156.82 3215.83 1155.48 3220.13 1152.79C3224.61 1150.1 3227.47 1146.52 3228.73 1142.05H3264.72C3260.78 1155.48 3253.62 1165.95 3243.23 1173.47C3233.02 1180.82 3220.85 1184.49 3206.7 1184.49C3162.65 1184.49 3140.62 1160.49 3140.62 1112.5C3140.62 1091.91 3146.26 1075.61 3157.55 1063.61C3168.83 1051.44 3184.5 1045.35 3204.55 1045.35C3245.92 1045.35 3266.6 1071.58 3266.6 1124.05ZM3402.5 1088.86H3368.92C3368.02 1082.42 3365.7 1077.94 3361.94 1075.43C3358.18 1072.75 3352.27 1071.4 3344.21 1071.4C3330.42 1071.4 3323.53 1075.07 3323.53 1082.42C3323.53 1086 3325.14 1088.86 3328.36 1091.01C3331.76 1093.16 3337.31 1095.31 3345.01 1097.46C3348.42 1098.53 3352.98 1099.79 3358.71 1101.22C3364.62 1102.65 3369.64 1103.99 3373.75 1105.25C3377.87 1106.32 3381.46 1107.49 3384.5 1108.74C3399 1114.65 3406.26 1125.3 3406.26 1140.7C3406.26 1154.49 3401.24 1165.24 3391.21 1172.94C3381.37 1180.64 3367.13 1184.49 3348.51 1184.49C3328.63 1184.49 3313.14 1180.28 3302.04 1171.86C3290.93 1163.45 3285.2 1152.34 3284.85 1138.55H3320.84C3320.84 1144.64 3323.26 1149.48 3328.09 1153.06C3333.11 1156.46 3339.82 1158.16 3348.24 1158.16C3355.04 1158.16 3360.59 1157.09 3364.89 1154.94C3369.37 1152.61 3371.61 1149.12 3371.61 1144.46C3371.61 1140.17 3369.82 1137.03 3366.23 1135.06C3362.65 1132.91 3357.37 1131.03 3350.39 1129.42C3328.72 1124.23 3314.03 1119.21 3306.33 1114.38C3295.23 1107.4 3289.68 1097.46 3289.68 1084.56C3289.68 1072.57 3294.16 1063.08 3303.11 1056.09C3312.06 1048.93 3326.12 1045.35 3345.28 1045.35C3364.09 1045.35 3378.05 1049.02 3387.19 1056.36C3396.5 1063.52 3401.6 1074.36 3402.5 1088.86Z" fill="white"/>
<defs>
<linearGradient id="paint0_linear_12_60" x1="48.8365" y1="896.309" x2="3428.03" y2="896.309" gradientUnits="userSpaceOnUse">
<stop stop-color="#00AEFF"/>
<stop offset="0.436749" stop-color="#FFDB93"/>
<stop offset="1" stop-color="#0080FF"/>
</linearGradient>
<linearGradient id="paint1_linear_12_60" x1="1084.65" y1="918.823" x2="125.423" y2="918.823" gradientUnits="userSpaceOnUse">
<stop stop-color="white"/>
<stop offset="1" stop-color="white" stop-opacity="0"/>
</linearGradient>
</defs>
</svg>
